<?xml version="1.0" standalone="no"?>
<!DOCTYPE svg PUBLIC "-//W3C//DTD SVG 20010904//EN"
 "http://www.w3.org/TR/2001/REC-SVG-20010904/DTD/svg10.dtd">
<svg version="1.0" xmlns="http://www.w3.org/2000/svg"
 width="2070.000000pt" height="2070.000000pt" viewBox="0 0 2070.000000 2070.000000"
 preserveAspectRatio="xMidYMid meet">
<metadata>
Created by potrace 1.11, written by Peter Selinger 2001-2013
</metadata>
<g transform="translate(0.000000,2070.000000) scale(0.100000,-0.100000)"
fill="#000000" stroke="none">
<path d="M19323 19800 c-101 -13 -256 -54 -399 -105 -521 -189 -898 -455
-1313 -924 -768 -867 -1430 -1965 -1926 -3191 -333 -822 -528 -1488 -735
-2505 -57 -278 -146 -771 -181 -1000 -12 -82 -25 -153 -29 -157 -3 -5 -73 15
-155 42 -666 224 -1422 373 -2225 439 -373 31 -587 41 -1035 48 l-410 6 -108
103 c-130 124 -303 265 -490 398 -202 143 -325 244 -482 397 -86 84 -184 167
-256 217 -173 121 -239 203 -239 295 0 25 -9 73 -20 107 -13 40 -20 90 -20
139 0 42 -9 171 -20 286 -112 1159 -306 2115 -574 2821 -171 452 -399 907
-571 1139 -161 219 -423 434 -602 496 -307 106 -687 141 -977 90 -456 -80
-781 -363 -876 -763 -58 -244 -40 -591 45 -888 132 -458 464 -1024 946 -1610
57 -69 155 -192 218 -275 378 -495 826 -967 1798 -1895 l171 -164 7 -155 c8
-160 0 -802 -11 -902 l-6 -56 -127 -22 c-1194 -213 -2623 -693 -3864 -1299
-252 -123 -257 -126 -266 -161 -49 -191 -114 -482 -109 -486 3 -4 77 30 164
73 1221 612 2677 1115 3938 1361 114 23 217 41 228 41 20 0 21 -4 14 -137 -68
-1404 -199 -2770 -351 -3683 -145 -865 -355 -1686 -605 -2356 -287 -770 -698
-1505 -1129 -2019 -97 -117 -341 -360 -456 -456 -253 -211 -557 -408 -815
-527 -47 -22 -150 -70 -230 -107 -350 -163 -639 -249 -1010 -302 -158 -22
-801 -26 -1000 -5 -366 38 -699 101 -840 159 -321 132 -663 319 -1020 556
-177 118 -284 204 -401 324 -216 219 -290 349 -324 561 -8 54 -27 119 -50 170
-211 477 40 1142 630 1672 208 186 485 390 767 564 l77 47 75 307 c41 168 74
308 72 309 -1 2 -31 -37 -67 -85 -61 -83 -69 -91 -183 -157 -65 -39 -201 -124
-300 -190 -642 -426 -1082 -875 -1314 -1340 -270 -541 -347 -1085 -222 -1575
108 -425 428 -824 930 -1160 523 -349 901 -511 1461 -625 956 -196 2088 -31
3032 441 649 325 1157 728 1576 1250 314 393 628 918 868 1452 371 829 670
1957 847 3202 81 568 260 2346 347 3440 12 157 23 286 24 288 3 3 180 24 505
58 214 23 303 27 555 28 l300 1 260 -205 c1359 -1074 2613 -1936 3528 -2425
l108 -57 -8 -292 c-17 -629 -6 -1488 27 -2006 52 -804 179 -1551 400 -2352
189 -684 432 -1345 588 -1603 283 -467 647 -849 1150 -1206 240 -171 722 -236
1132 -152 268 54 566 206 815 415 639 536 1232 1633 1675 3098 76 250 161 562
155 568 -2 3 -78 -66 -168 -152 l-164 -156 -56 -230 c-180 -732 -403 -1350
-649 -1803 -407 -750 -820 -1151 -1296 -1262 -313 -73 -804 -15 -1089 128
-341 172 -727 570 -992 1021 -61 103 -271 520 -337 669 -292 656 -542 1560
-668 2422 -54 368 -85 701 -107 1130 -13 250 -14 1339 -1 1471 l7 81 165 -74
c333 -150 652 -267 883 -323 201 -49 283 -61 463 -67 144 -5 195 -2 325 16
461 67 698 168 911 389 167 173 235 307 278 543 22 126 25 207 9 295 -71 401
-410 766 -1137 1220 -554 347 -1047 597 -1573 798 l-95 37 32 242 c219 1613
499 2815 889 3807 236 599 512 1136 879 1705 297 462 720 1011 893 1160 382
328 946 600 1289 622 299 19 539 -155 723 -524 193 -388 284 -757 356 -1458
64 -622 16 -1458 -140 -2410 -18 -110 -31 -201 -30 -203 2 -2 346 402 372 439
29 39 121 799 158 1299 76 1030 20 1726 -200 2475 -104 352 -153 456 -281 594
-182 197 -469 303 -731 271z m-12408 -1410 c42 -11 100 -33 129 -48 100 -56
112 -62 200 -102 189 -85 388 -244 522 -416 288 -369 665 -1244 839 -1946 72
-295 190 -934 289 -1575 2 -13 1 -23 -2 -23 -17 0 -564 502 -826 760 -362 356
-562 588 -804 931 -64 92 -192 266 -283 386 -284 376 -505 721 -680 1058 -149
289 -262 575 -260 664 1 69 28 145 71 200 46 59 72 68 265 100 159 27 168 28
326 29 107 2 152 -2 214 -18z m2476 -5541 c79 -53 196 -130 259 -171 128 -84
250 -186 318 -265 l45 -53 -158 0 c-135 0 -404 -12 -541 -24 l-41 -3 0 186 c0
183 -5 223 -50 420 -7 28 -22 36 168 -90z m2694 -1040 c490 -49 894 -125 1598
-300 365 -91 620 -160 825 -225 l143 -45 -6 -42 c-29 -214 -83 -745 -110
-1082 -9 -110 -18 -202 -20 -204 -2 -2 -84 45 -182 104 -720 436 -1522 1000
-2288 1609 -137 109 -254 203 -260 208 -6 5 12 7 45 3 30 -3 145 -14 255 -26z
m3210 -810 c549 -219 1029 -464 1410 -720 121 -81 154 -111 471 -430 318 -321
344 -349 379 -421 35 -71 37 -81 33 -150 -5 -91 -27 -138 -78 -167 -23 -12
-133 -43 -267 -72 -216 -48 -236 -51 -373 -51 -324 -1 -708 106 -1270 354
-158 70 -625 301 -659 328 l-24 18 12 193 c15 229 52 672 82 992 22 221 23
227 43 221 12 -4 120 -46 241 -95z"/>
<path d="M4567 13506 c-85 -31 -112 -90 -104 -229 22 -375 493 -1025 987
-1362 95 -65 261 -147 332 -164 125 -30 220 -4 260 72 19 35 23 57 22 132 -1
76 -6 107 -37 198 -95 279 -316 608 -602 892 -138 138 -239 222 -377 312 -205
135 -374 187 -481 149z"/>
<path d="M3159 12989 c-168 -25 -215 -164 -134 -405 85 -257 283 -543 580
-839 292 -293 605 -508 859 -592 105 -34 250 -39 309 -9 131 65 129 274 -5
543 -109 221 -275 440 -513 678 -243 243 -466 411 -690 520 -178 87 -303 119
-406 104z"/>
</g>
</svg>
